<svg width="18" height="18" viewBox="0 0 18 18" fill="none" xmlns="http://www.w3.org/2000/svg">
<mask id="mask0_36_1059" style="mask-type:luminance" maskUnits="userSpaceOnUse" x="0" y="0" width="18" height="18">
<rect y="-3.05176e-05" width="18" height="18" fill="white"/>
</mask>
<g mask="url(#mask0_36_1059)">
<path fill-rule="evenodd" clip-rule="evenodd" d="M9 1.87497C5.06498 1.87497 1.87501 5.06493 1.875 8.99995C1.87499 12.935 5.06494 16.125 8.99997 16.125C12.935 16.125 16.125 12.935 16.125 9C16.125 5.06498 12.9351 1.875 9.00003 1.87497H9Z" fill="#039BE5"/>
<path fill-rule="evenodd" clip-rule="evenodd" d="M9.96451 10.8884H11.8084L12.0979 9.01532H9.96414V7.99157C9.96414 7.21345 10.2184 6.52345 10.9463 6.52345H12.1159V4.88882C11.9104 4.86107 11.4758 4.80032 10.6545 4.80032C8.93964 4.80032 7.93426 5.70595 7.93426 7.7692V9.01532H6.17139V10.8884H7.93426V16.0368C8.28339 16.0893 8.63701 16.1249 9.00001 16.1249C9.32814 16.1249 9.64839 16.0949 9.96451 16.0522V10.8884V10.8884Z" fill="white"/>
</g>
</svg>
