<svg width="18" height="18" viewBox="0 0 18 18" fill="none" xmlns="http://www.w3.org/2000/svg">
<mask id="mask0_36_1051" style="mask-type:luminance" maskUnits="userSpaceOnUse" x="0" y="0" width="18" height="18">
<rect y="-3.05176e-05" width="18" height="18" fill="white"/>
</mask>
<g mask="url(#mask0_36_1051)">
<path fill-rule="evenodd" clip-rule="evenodd" d="M16.3541 7.53109H15.75V7.49997H9V10.5H13.2386C12.6203 12.2463 10.9586 13.5 9 13.5C6.51488 13.5 4.5 11.4851 4.5 8.99997C4.5 6.51485 6.51488 4.49997 9 4.49997C10.1471 4.49997 11.1907 4.93272 11.9854 5.63959L14.1067 3.51822C12.7673 2.26984 10.9755 1.49997 9 1.49997C4.85813 1.49997 1.5 4.85809 1.5 8.99997C1.5 13.1418 4.85813 16.5 9 16.5C13.1419 16.5 16.5 13.1418 16.5 8.99997C16.5 8.49709 16.4483 8.00622 16.3541 7.53109V7.53109Z" fill="#FFC107"/>
<path fill-rule="evenodd" clip-rule="evenodd" d="M2.36475 5.50909L4.82887 7.31622C5.49562 5.66547 7.11037 4.49997 9 4.49997C10.1471 4.49997 11.1907 4.93272 11.9854 5.63959L14.1067 3.51822C12.7672 2.26984 10.9755 1.49997 9 1.49997C6.11925 1.49997 3.621 3.12634 2.36475 5.50909V5.50909Z" fill="#FF3D00"/>
<path fill-rule="evenodd" clip-rule="evenodd" d="M9.00012 16.5C10.9374 16.5 12.6976 15.7586 14.0285 14.553L11.7072 12.5887C10.9542 13.1591 10.0182 13.5 9.00012 13.5C7.04937 13.5 5.39299 12.2561 4.76899 10.5202L2.32324 12.4046C3.56449 14.8335 6.08524 16.5 9.00012 16.5V16.5Z" fill="#4CAF50"/>
<path fill-rule="evenodd" clip-rule="evenodd" d="M16.3541 7.53109H15.75V7.49997H9V10.5H13.2386C12.9416 11.3388 12.402 12.0622 11.706 12.5891C11.7064 12.5887 11.7068 12.5887 11.7071 12.5883L14.0284 14.5526C13.8641 14.7018 16.5 12.75 16.5 8.99997C16.5 8.49709 16.4483 8.00622 16.3541 7.53109V7.53109Z" fill="#1976D2"/>
</g>
</svg>
