<svg width="40" height="25" viewBox="0 0 40 25" fill="none" xmlns="http://www.w3.org/2000/svg">
<g clip-path="url(#clip0_1_131)">
<path d="M37.2161 8.98921C44.2443 11.6127 30.1494 24.6914 24.1196 24.9614C17.629 25.2701 12.5595 22.2994 12.5595 19.1358C12.5595 17.8241 13.558 16.7438 14.1725 16.2037C14.4029 15.9722 14.787 16.0494 14.979 16.3195C15.4399 17.0911 16.5921 18.4414 19.6262 18.6343C28.9588 19.3673 23.9276 4.05094 37.2161 8.98921Z" fill="#828282"/>
<path d="M2.42029 16.0108C-4.60799 13.3874 9.52539 0.308665 15.5167 0.0386031C22.0073 -0.270039 27.0769 2.70064 27.0769 5.82564C27.0769 7.13737 26.0783 8.21762 25.4638 8.75774C25.2334 8.98922 24.8494 8.91206 24.6573 8.642C24.1965 7.87039 23.0443 6.52008 20.0102 6.32718C10.6776 5.63274 15.7087 20.9491 2.42029 16.0108Z" fill="#828282"/>
<path d="M19.7414 16.0494C21.6079 16.0494 23.1211 14.5294 23.1211 12.6543C23.1211 10.7793 21.6079 9.25928 19.7414 9.25928C17.8748 9.25928 16.3616 10.7793 16.3616 12.6543C16.3616 14.5294 17.8748 16.0494 19.7414 16.0494Z" fill="#828282"/>
</g>
<defs>
<clipPath id="clip0_1_131">
<rect width="38.6364" height="25" fill="white" transform="translate(0.5)"/>
</clipPath>
</defs>
</svg>
