<svg width="32" height="32" viewBox="0 0 32 32" fill="none" xmlns="http://www.w3.org/2000/svg">
<g opacity="0.5">
<path d="M11.3846 21.7692C17.1199 21.7692 21.7692 17.1199 21.7692 11.3846C21.7692 5.64935 17.1199 1 11.3846 1C5.64935 1 1 5.64935 1 11.3846C1 17.1199 5.64935 21.7692 11.3846 21.7692Z" stroke="white" stroke-width="2" stroke-linecap="round" stroke-linejoin="round"/>
<path d="M20.6151 31C26.3503 31 30.9997 26.3507 30.9997 20.6154C30.9997 14.8801 26.3503 10.2308 20.6151 10.2308C14.8798 10.2308 10.2305 14.8801 10.2305 20.6154C10.2305 26.3507 14.8798 31 20.6151 31Z" stroke="white" stroke-width="2" stroke-linecap="round" stroke-linejoin="round"/>
<path d="M15.209 11.7476L20.2524 16.791" stroke="white" stroke-width="2" stroke-linecap="round" stroke-linejoin="round"/>
<path d="M11.748 15.209L16.7915 20.2524" stroke="white" stroke-width="2" stroke-linecap="round" stroke-linejoin="round"/>
</g>
</svg>
