<svg width="39" height="25" viewBox="0 0 39 25" fill="none" xmlns="http://www.w3.org/2000/svg">
<path d="M13.7008 20.8957C12.048 19.3122 12.5407 16.6374 14.6584 15.6906C14.8618 15.9641 15.0891 16.2266 15.3459 16.4718C17.816 18.8384 21.8223 18.8384 24.2923 16.4718C25.0571 15.7391 25.5842 14.8663 25.8754 13.9397C26.6192 11.5713 28.3216 9.5871 30.6608 8.5415L30.8528 8.45551C33.1662 7.42179 35.9075 7.88468 37.712 9.61454C39.1881 11.0288 39.1881 13.3432 37.712 14.7575L31.3053 20.8957C26.4645 25.5337 18.5426 25.5337 13.7008 20.8957Z" fill="#2B385C"/>
<path d="M24.2905 7.90242C21.8205 5.53585 17.8141 5.53585 15.3441 7.90242C14.5793 8.63517 14.0522 9.50788 13.761 10.4345C13.0172 12.8029 11.3148 14.7871 8.97558 15.8327L8.78367 15.9187C6.47019 16.9524 3.72897 16.4895 1.9244 14.7597C0.448277 13.3454 0.448277 11.031 1.9244 9.61674L8.33109 3.47849C13.1719 -1.1595 21.0948 -1.1595 25.9357 3.47849C27.5884 5.06199 27.0957 7.73684 24.978 8.68365C24.7756 8.40921 24.5474 8.14758 24.2905 7.90242Z" fill="#2B385C"/>
<path d="M19.8002 15.7318C21.8013 15.7318 23.4236 14.1775 23.4236 12.2602C23.4236 10.3429 21.8013 8.78857 19.8002 8.78857C17.799 8.78857 16.1767 10.3429 16.1767 12.2602C16.1767 14.1775 17.799 15.7318 19.8002 15.7318Z" fill="#2B385C"/>
</svg>
