<svg width="14" height="18" viewBox="0 0 14 18" fill="none" xmlns="http://www.w3.org/2000/svg">
<mask id="mask0_36_1067" style="mask-type:luminance" maskUnits="userSpaceOnUse" x="0" y="0" width="14" height="18">
<rect y="-3.05176e-05" width="13.5" height="18" fill="white"/>
</mask>
<g mask="url(#mask0_36_1067)">
<path fill-rule="evenodd" clip-rule="evenodd" d="M11.2043 9.44643C11.1973 8.1562 11.7809 7.18237 12.9621 6.46518C12.3012 5.51948 11.3027 4.99917 9.98438 4.89722C8.73633 4.79878 7.37227 5.62495 6.87305 5.62495C6.3457 5.62495 5.13633 4.93237 4.18711 4.93237C2.22539 4.96401 0.140625 6.49682 0.140625 9.61518C0.140625 10.5363 0.309375 11.4878 0.646875 12.4699C1.09688 13.7601 2.72109 16.9242 4.41563 16.8714C5.30156 16.8503 5.92734 16.2421 7.08047 16.2421C8.19844 16.2421 8.77852 16.8714 9.76641 16.8714C11.475 16.8468 12.9445 13.971 13.3734 12.6773C11.0813 11.598 11.2043 9.51323 11.2043 9.44643L11.2043 9.44643ZM9.21444 3.6738C10.1742 2.53473 10.0863 1.49763 10.0582 1.12497C9.21093 1.17419 8.23007 1.70153 7.67108 2.35192C7.05585 3.04802 6.69374 3.90934 6.77108 4.87966C7.68866 4.94997 8.52538 4.47888 9.21444 3.6738V3.6738Z" fill="black"/>
</g>
</svg>
