<svg width="22" height="32" viewBox="0 0 22 32" fill="none" xmlns="http://www.w3.org/2000/svg">
<g opacity="0.5">
<path d="M11 22.6C12.6569 22.6 14 21.2568 14 19.6C14 17.9431 12.6569 16.6 11 16.6C9.34315 16.6 8 17.9431 8 19.6C8 21.2568 9.34315 22.6 11 22.6Z" stroke="white" stroke-width="2" stroke-linecap="round" stroke-linejoin="round"/>
<path d="M11 22.6V26.2" stroke="white" stroke-width="2" stroke-linecap="round" stroke-linejoin="round"/>
<path d="M20.0909 11.8H1.90909C1.40701 11.8 1 12.3372 1 13V29.8C1 30.4627 1.40701 31 1.90909 31H20.0909C20.593 31 21 30.4627 21 29.8V13C21 12.3372 20.593 11.8 20.0909 11.8Z" stroke="white" stroke-width="2" stroke-linecap="round" stroke-linejoin="round"/>
<path d="M6 11.8V6.4C6 4.96783 6.56893 3.59432 7.58162 2.58162C8.59432 1.56893 9.96783 1 11.4 1C12.8322 1 14.2057 1.56893 15.2184 2.58162C16.2311 3.59432 16.8 4.96783 16.8 6.4" stroke="white" stroke-width="2" stroke-linecap="round" stroke-linejoin="round"/>
</g>
</svg>
