<svg width="146" height="103" viewBox="0 0 146 103" fill="none" xmlns="http://www.w3.org/2000/svg">
<g clip-path="url(#clip0_36_1239)">
<path d="M51.2901 86.0903C45.1027 79.5663 46.9471 68.5461 54.8749 64.6453C55.6364 65.7721 56.4873 66.8536 57.4486 67.8638C66.6957 77.6142 81.6936 77.6142 90.9403 67.8638C93.8034 64.8451 95.7766 61.2492 96.8668 57.4316C99.6513 47.6738 106.024 39.4989 114.781 35.191L115.5 34.8367C124.161 30.5778 134.423 32.4849 141.178 39.6119C146.704 45.4387 146.704 54.974 141.178 60.8009L117.194 86.0903C99.0721 105.199 69.4158 105.199 51.2901 86.0903Z" fill="white"/>
<path d="M90.9336 32.558C81.6869 22.8077 66.6886 22.8077 57.4419 32.558C54.5788 35.5769 52.6056 39.1725 51.5154 42.9901C48.731 52.748 42.3579 60.9229 33.6008 65.2307L32.8824 65.585C24.2216 69.8439 13.9596 67.9367 7.20407 60.81C1.67807 54.9831 1.67807 45.4477 7.20407 39.621L31.1881 14.3314C49.3101 -4.77713 78.9702 -4.77713 97.0925 14.3314C103.28 20.8554 101.435 31.8758 93.5073 35.7766C92.7496 34.646 91.8953 33.568 90.9336 32.558Z" fill="white"/>
<path d="M74.1237 64.815C81.615 64.815 87.6883 58.4113 87.6883 50.512C87.6883 42.6128 81.615 36.2089 74.1237 36.2089C66.6321 36.2089 60.5588 42.6128 60.5588 50.512C60.5588 58.4113 66.6321 64.815 74.1237 64.815Z" fill="white"/>
</g>
<defs>
<clipPath id="clip0_36_1239">
<rect width="146" height="103" fill="white"/>
</clipPath>
</defs>
</svg>
