<svg width="80" height="30" viewBox="0 0 80 30" fill="none" xmlns="http://www.w3.org/2000/svg">
<g clip-path="url(#clip0_1_98)">
<path d="M15 30C23.2843 30 30 23.2843 30 15C30 6.71573 23.2843 0 15 0C6.71573 0 0 6.71573 0 15C0 23.2843 6.71573 30 15 30Z" fill="black"/>
<path d="M18.7709 15.5872H16.0944V25.3929H12.0392V15.5872H10.1105V12.1411H12.0392V9.91107C12.0392 8.31636 12.7967 5.81921 16.1305 5.81921L19.1343 5.83178V9.17682H16.9548C16.5973 9.17682 16.0946 9.35544 16.0946 10.1162V12.1443H19.1252L18.7709 15.5872Z" fill="white"/>
</g>
<g clip-path="url(#clip1_1_98)">
<path d="M65.0002 29.9997C73.2844 29.9997 80.0001 23.2841 80.0001 14.9999C80.0001 6.71567 73.2844 0 65.0002 0C56.716 0 50.0004 6.71567 50.0004 14.9999C50.0004 23.2841 56.716 29.9997 65.0002 29.9997Z" fill="black"/>
<path d="M74.188 10.78C73.5452 11.065 72.8538 11.2578 72.1286 11.3439C72.869 10.9003 73.4372 10.1984 73.7054 9.36067C73.0126 9.77165 72.2449 10.0698 71.4286 10.2305C70.7746 9.53394 69.8427 9.09863 68.8109 9.09863C66.8311 9.09863 65.2255 10.7043 65.2255 12.684C65.2255 12.965 65.2573 13.2386 65.3188 13.5012C62.339 13.3517 59.697 11.9244 57.9285 9.75453C57.6199 10.284 57.4429 10.9003 57.4429 11.5573C57.4429 12.8009 58.0764 13.8988 59.0379 14.5416C58.4504 14.5231 57.8972 14.3619 57.414 14.0926C57.4138 14.1079 57.4138 14.1231 57.4138 14.1381C57.4138 15.8753 58.6502 17.3243 60.2901 17.6534C59.9895 17.7358 59.6721 17.7793 59.3457 17.7793C59.1141 17.7793 58.8898 17.7572 58.671 17.7154C59.1272 19.1395 60.451 20.1762 62.0203 20.2053C60.793 21.1671 59.2473 21.7401 57.567 21.7401C57.2782 21.7401 56.9921 21.7233 56.7122 21.6899C58.298 22.7075 60.1831 23.3009 62.2078 23.3009C68.8026 23.3009 72.4091 17.8376 72.4091 13.0993C72.4091 12.9439 72.4056 12.7891 72.3987 12.6356C73.0998 12.1303 73.7075 11.499 74.188 10.78Z" fill="white"/>
</g>
<defs>
<clipPath id="clip0_1_98">
<rect width="30" height="30" fill="white"/>
</clipPath>
<clipPath id="clip1_1_98">
<rect width="30" height="30" fill="white" transform="translate(50)"/>
</clipPath>
</defs>
</svg>
